<svg id="Capa_1" enable-background="new 0 0 512 512" height="512" viewBox="0 0 512 512" width="512" xmlns="http://www.w3.org/2000/svg"><g><path d="m288 471c-8.284 0-15-6.716-15-15v-32c0-8.284 6.716-15 15-15s15 6.716 15 15v32c0 8.284-6.716 15-15 15z" fill="#384949"/><path d="m432 471c-8.284 0-15-6.716-15-15v-32c0-8.284 6.716-15 15-15s15 6.716 15 15v32c0 8.284-6.716 15-15 15z" fill="#384949"/><path d="m256 391h-200c-8.284 0-15-6.716-15-15v-208c0-8.284 6.716-15 15-15h200c8.284 0 15 6.716 15 15v208c0 8.284-6.716 15-15 15z" fill="#a34f3e"/><path d="m256 311v-143c0-8.284 6.278-15 14.022-15h186.957c7.744 0 14.022 6.716 14.022 15v143z" fill="#873f2e"/><path d="m256 311v113c0 8.28 6.28 15 14.02 15h186.96c7.74 0 14.02-6.72 14.02-15v-113z" fill="#7a3629"/><path d="m376 247h-24c-8.284 0-15-6.716-15-15s6.716-15 15-15h24c8.284 0 15 6.716 15 15s-6.716 15-15 15z" fill="#fed843"/><path d="m376 217h-12.5v30h12.5c8.284 0 15-6.716 15-15s-6.716-15-15-15z" fill="#fabe2c"/><path d="m376 375h-24c-8.284 0-15-6.716-15-15s6.716-15 15-15h24c8.284 0 15 6.716 15 15s-6.716 15-15 15z" fill="#fed843"/><path d="m376 345h-12.5v30h12.5c8.284 0 15-6.716 15-15s-6.716-15-15-15z" fill="#fabe2c"/><path d="m496 70.12v97.88c0 8.28-6.72 15-15 15h-410v273c0 8.28-6.72 15-15 15s-15-6.72-15-15v-273h-10c-8.28 0-15-6.72-15-15v-97.88c5.28-3.21 38.06-14.12 240-14.12s234.72 10.91 240 14.12z" fill="#c86e59"/><path d="m496 70.12v97.88c0 8.28-6.72 15-15 15h-225v-127c201.94 0 234.72 10.91 240 14.12z" fill="#a34f3e"/><circle cx="320" cy="112" fill="#fabe2c" r="14.787"/><circle cx="192" cy="112" fill="#fed843" r="15.128"/><path d="m281.43 56c0 10.96-25.43 15-25.43 15h-241c-8.28 0-15-6.72-15-15s6.72-15 15-15h241s25.43 4.04 25.43 15z" fill="#4a696f"/><path d="m497 41h-241v30h241c8.284 0 15-6.716 15-15s-6.716-15-15-15z" fill="#384949"/></g></svg>